PathFileType	4	(X/Y/Z)	22_coords_data.trc
DataRate	CameraRate	NumFrames	NumMarkers	Units	OrigDataRate	OrigDataStartFrame	OrigNumFrames
30.0	30.0	6	21	m	30.0	1	59
Frame#	Time	THUMB_TIP	THUMB_IP	THUMB_MCP	THUMB_CMC	INDEX_TIP	INDEX_DIP	INDEX_PIP	INDEX_MCP	MIDDLE_TIP	MIDDLE_DIP	MIDDLE_PIP	MIDDLE_MCP	RING_TIP	RING_DIP	RING_PIP	RING_MCP	PINKY_TIP	PINKY_DIP	PINKY_PIP	PINKY_MCP	WRIST
X1	Y1	Z1	X2	Y2	Z2	X3	Y3	Z3	X4	Y4	Z4	X5	Y5	Z5	X6	Y6	Z6	X7	Y7	Z7	X8	Y8	Z8	X9	Y9	Z9	X10	Y10	Z10	X11	Y11	Z11	X12	Y12	Z12	X13	Y13	Z13	X14	Y14	Z14	X15	Y15	Z15	X16	Y16	Z16	X17	Y17	Z17	X18	Y18	Z18	X19	Y19	Z19	X20	Y20	Z20	X21	Y21	Z21
0	-2.749317978547796e-18	0.5470362472780674	-0.02777195189867765	-0.11599057863807308	0.5271417325134001	-0.020081266937154063	-0.12453818924578265	0.49812583765748464	-0.014015210134401102	-0.11504604509515833	0.4744349637283657	-0.01818995058678652	-0.07748004937256615	0.5594770734817727	0.0657877404324827	-0.15883945845954484	0.5489160071431398	0.054770155769054085	-0.149088729975212	0.5337908692083049	0.04452985573477819	-0.1318151579456569	0.5113639662179962	0.025332262788900994	-0.10112114319770182	0.519674137808414	-0.019853128947350585	-0.10928087498609661	0.5342505550301522	-0.013939938016196196	-0.11825652170315983	0.5472474154760554	0.0119503697732799	-0.1150654198376737	0.5204628814679492	0.025585361011401964	-0.08200753616516764	0.5287605486132244	-0.02446237755996128	-0.10391800374408561	0.5438385835001182	-0.015223089859022543	-0.10742348897852903	0.556479131776044	0.00470622622301109	-0.09947245893290697	0.5304088919403335	0.014884852413194705	-0.0702926885810168	0.5973418939557604	0.019667739631936687	-0.09274212376504334	0.5826353787743371	0.012137169935050762	-0.088268989376395	0.5637208524634318	0.005712728312737947	-0.08180530132114607	0.5318352329077003	-0.003966520951661612	-0.06800302432694051	0.4622830810018609	-0.023011742144276925	-0.051989820119430985
1	0.03333333333333339	0.5472369381561935	-0.027887458778998564	-0.11601628861945401	0.5272040484937784	-0.020564366955831415	-0.12456354887774568	0.49825324858330033	-0.01428416413523459	-0.11501209678522961	0.4744226017347125	-0.018448128744305348	-0.07753341391733393	0.5597771964993044	0.0657204708703597	-0.15859358887710323	0.5491538976771202	0.05484259373796807	-0.1487540100635985	0.5339050697026331	0.044226126077983596	-0.13181961627967442	0.510928455345577	0.025881232553454314	-0.10101091347899155	0.5193016772213288	-0.019830147335623605	-0.10925136668343327	0.5339608328107808	-0.014102168120247116	-0.1182123605743167	0.5472944192649084	0.011628351551679295	-0.11511956577302168	0.5204654961891644	0.02547230938826084	-0.08218475684667809	0.5289108040494365	-0.024131574801802502	-0.10371916012500387	0.5441804010446056	-0.015121554308579532	-0.10698396307722438	0.5568404550635347	0.004849995892636683	-0.09917114068079838	0.5303506164358429	0.014962507247674783	-0.07034846909100512	0.5975908965568398	0.019343406487145942	-0.09230177929682523	0.5827975757935409	0.01197964581076616	-0.08783717522757664	0.5638436307833783	0.005470980732047104	-0.08157640319492823	0.5319019691792909	-0.004016220827359418	-0.06777036424303567	0.4622830810018609	-0.023011742144276925	-0.051989820119430985
2	0.06666666666666676	0.547395298331526	-0.02797697581987524	-0.11601641561638747	0.5272603292557723	-0.020939664021521476	-0.12456388676118757	0.4983581463679105	-0.014488605971052393	-0.11497912414826571	0.4744167205118953	-0.018639521660881564	-0.07756965974529866	0.5600249195733248	0.06562805087616397	-0.15837498126756527	0.5493513055968587	0.05485913986296187	-0.14847020866688806	0.5340062673893691	0.043968450018539884	-0.13179890067611297	0.5106006878032399	0.02629470349140628	-0.10092085634147266	0.5190373099129351	-0.019810405232835282	-0.10921893052596998	0.5337625404367519	-0.014228395589606535	-0.11816369180637062	0.547340928542479	0.01138331532041914	-0.1151508541553311	0.5204676078649855	0.025385677152738317	-0.08231936896380469	0.5290313019967577	-0.023858178323554524	-0.1035244810802147	0.5444426967971372	-0.01503484671165467	-0.106628950370333	0.5571212624962576	0.004964423209075974	-0.0989177148369797	0.5303031678524103	0.015030391890790584	-0.07038375422558912	0.5977921751020746	0.019122035909024948	-0.0918922837122782	0.5829331872930359	0.01188074308630993	-0.0874454691730229	0.5639459742456742	0.005300097091348932	-0.08136329374123036	0.531951420062473	-0.004039751231371791	-0.06757927448243733	0.46228308100186094	-0.023011742144276925	-0.051989820119430985
3	0.10000000000000014	0.5475205238045597	-0.028042265668717592	-0.11599455446511292	0.5273137040888485	-0.021215164292287425	-0.1245429533662338	0.4984437920577537	-0.014635592448474788	-0.11494829789201491	0.47441779706647186	-0.01877275516442589	-0.07759156557586278	0.5602343788977476	0.06553078419495983	-0.1581876930775822	0.5495199682233698	0.05484388584780708	-0.1482382404484975	0.5340994603263818	0.04376545774516627	-0.13176140216035653	0.5103708681240912	0.02659005365939593	-0.10084869440791433	0.5188673565856396	-0.01979270082060558	-0.10918408998719721	0.5336447842490762	-0.014320910674639808	-0.11811085559689105	0.5473879101495855	0.011210031453736224	-0.1151600871342244	0.5204693065442791	0.02532435689073531	-0.0824137511804285	0.5291221351967693	-0.023631040286504312	-0.10334001087650146	0.5446389975612753	-0.014960764653460856	-0.10634888156299341	0.557334388772079	0.005053738342186254	-0.09870514616451888	0.5302657224046161	0.015090237548427421	-0.0703983127356432	0.5979529274382057	0.018990157696385457	-0.09151424823442114	0.5830455865450063	0.011833235688717192	-0.08709274906896858	0.5640304944139288	0.005192392371602295	-0.08116506062538735	0.5319854581976325	-0.004038765360154906	-0.0674251613598293	0.4622830810018609	-0.023011742144276925	-0.051989820119430985
4	0.13333333333333353	0.5476206627144174	-0.028084408033137387	-0.11595443250658073	0.5273667446246182	-0.021399963778922615	-0.12450411127387945	0.49851376266256114	-0.014731779038088977	-0.11491971018881812	0.4744261009058508	-0.018856077145106065	-0.07760128690729712	0.5604167433931757	0.06544116064583028	-0.1580309233408093	0.5496689690432384	0.05481302213280537	-0.1480545503390222	0.5341886039604125	0.043619517651300344	-0.13171216412020612	0.5102276882600699	0.02678485219606297	-0.10079122215830394	0.5187791367256053	-0.019776248764151294	-0.10914702511799723	0.5335972069192004	-0.01438213719171788	-0.11805367185410534	0.5474361725119765	0.01110212544864142	-0.11514765413235112	0.5204706110538979	0.025287010511832353	-0.08247051453913318	0.5291864518666244	-0.023440229841010907	-0.103166872584346	0.5447815753159141	-0.01489661759590133	-0.1061331521407316	0.5574913165989235	0.005122708010946164	-0.09852598067125692	0.5302371800957267	0.015144035553117052	-0.07039226652332312	0.5980794452153765	0.018935490707103098	-0.09116589944129984	0.5831380103086631	0.011830556990468422	-0.08677574684592515	0.5640996935512234	0.005140641677805813	-0.08097923520936359	0.5320061772045437	-0.004015425168941156	-0.0673023898346689	0.4622830810018609	-0.023011742144276925	-0.051989820119430985
5	0.1666666666666669	0.5477028011056044	-0.02810406482604655	-0.11589986122857276	0.5274215655325163	-0.021504085638743398	-0.12445040263576271	0.498571885611667	-0.014783547198325309	-0.11489266589867847	0.47444175922790166	-0.018897454098400268	-0.07760053843561959	0.5605807055757586	0.0653658064439222	-0.15790012299692144	0.5498051413669086	0.054776804091555276	-0.14791211793271955	0.5342765649170349	0.043528342215846005	-0.13165342020285375	0.5101587543952841	0.02689675768782207	-0.10074455892127099	0.51876073567964	-0.019760632362275987	-0.10910765635811848	0.5336098726131647	-0.014414672680004292	-0.11799156582439277	0.5474863951322712	0.01105234607356087	-0.11511361019890315	0.5204714798396581	0.025272116406156897	-0.08249244522244695	0.5292290565834062	-0.023276692670066934	-0.10300295147193214	0.5448817028343516	-0.014839354217402234	-0.10597043949683738	0.5576024655384259	0.005176488838199544	-0.09837253175850866	0.5302162209452925	0.015193972235019393	-0.0703660241668877	0.5981773556469717	0.018946621753983317	-0.09084370059359143	0.5832135609251865	0.011866617627607323	-0.08648957736442461	0.5641559873228854	0.005137938221905336	-0.08080224223730575	0.5320158269130292	-0.003972264483900534	-0.06720453116198713	0.4622830810018609	-0.023011742144276925	-0.051989820119430985
